<?xml version="1.0" encoding="UTF-8" standalone="no"?>
<svg width="158.75mm" height="13.7583mm"
 xmlns="http://www.w3.org/2000/svg" xmlns:xlink="http://www.w3.org/1999/xlink"  version="1.2" baseProfile="tiny">
<desc>Created by EvoPdf</desc>
<defs>
</defs>
<g fill="none" stroke="black" stroke-width="1" fill-rule="evenodd" stroke-linecap="square" stroke-linejoin="bevel" >

<g fill="#000000" fill-opacity="1" stroke="#000000" stroke-opacity="1" stroke-width="1" stroke-linecap="butt" stroke-linejoin="miter" stroke-miterlimit="2" transform="matrix(1,0,0,1,0,0)"
>
</g>

<g fill="#000000" fill-opacity="1" stroke="#000000" stroke-opacity="1" stroke-width="1" stroke-linecap="butt" stroke-linejoin="miter" stroke-miterlimit="2" transform="matrix(1,0,0,1,0,0)"
>
</g>

<g fill="#000000" fill-opacity="1" stroke="#000000" stroke-opacity="1" stroke-width="1" stroke-linecap="butt" stroke-linejoin="miter" stroke-miterlimit="2" transform="matrix(1,0,0,1,0,0)"
>
</g>

<g fill="#000000" fill-opacity="1" stroke="#000000" stroke-opacity="1" stroke-width="1" stroke-linecap="butt" stroke-linejoin="miter" stroke-miterlimit="2" transform="matrix(1,0,0,1,0,0)"
>
</g>

<g fill="#000000" fill-opacity="1" stroke="#000000" stroke-opacity="1" stroke-width="1" stroke-linecap="butt" stroke-linejoin="miter" stroke-miterlimit="2" transform="matrix(0.330275,0,0,0.330275,8.88991,8)"
>
</g>

<g fill="#ff5a5a" fill-opacity="1" stroke="none" transform="matrix(0.330275,0,0,0.330275,8.88991,8)"
>
<path vector-effect="none" fill-rule="evenodd" d="M190.2,84 L198.5,84 L215.5,42.5 L204.5,42.5 L194.4,70.9 L184.4,42.5 L173.2,42.5 L190.2,84 M238.6,84.9 C244.364,84.9602 249.899,82.6487 253.908,78.5073 C257.917,74.3659 260.047,68.7587 259.8,63 C259.8,51.3 251.4,41.5 238.6,41.5 C232.874,41.359 227.343,43.5856 223.312,47.6548 C219.28,51.7239 217.106,57.2754 217.3,63 C217.023,68.7932 219.154,74.4429 223.189,78.6098 C227.223,82.7766 232.801,85.0895 238.6,85 L238.6,84.9 M238.6,76.1 C230.9,76.1 227.8,70 227.8,63.1 C227.8,56.3 230.9,50.4 238.6,50.4 C246.2,50.4 249.3,56.4 249.3,63.1 C249.3,70 246.3,76.1 238.6,76.1 M283.2,97.7 L305.2,42.5 L294.1,42.5 L283.4,71.3 L273,42.5 L261.8,42.5 L278,82.9 L272,97.7 L283,97.7 L283.2,97.7 M321.4,97.7 L321.4,79.9 C324.4,83.4 328.9,84.9 333.3,84.9 C344.7,84.9 351.1,74.7 351.1,63.2 C351.1,51.7 344.7,41.6 333.1,41.6 C328.6,41.6 324.3,43.1 321.4,46.6 L321.4,42.5 L311.1,42.5 L311.1,97.7 L321.4,97.7 L321.4,97.7 M330.6,75.5 C323.6,75.5 320.5,70.2 320.5,63.2 C320.5,56.2 323.6,50.7 330.5,50.7 C337.5,50.7 340.7,56.2 340.7,63.2 C340.7,70.2 337.6,75.5 330.6,75.5 M377.1,84.9 C382.881,84.9879 388.442,82.6886 392.473,78.544 C396.504,74.3994 398.648,68.7762 398.4,63 C398.4,51.3 389.9,41.5 377.1,41.5 C371.374,41.359 365.843,43.5856 361.812,47.6548 C357.78,51.7239 355.605,57.2754 355.8,63 C355.523,68.7932 357.655,74.4429 361.689,78.6098 C365.723,82.7766 371.301,85.0895 377.1,85 L377.1,84.9 M377.1,76.1 C369.4,76.1 366.4,70 366.4,63.1 C366.4,56.3 369.4,50.4 377.1,50.4 C384.8,50.4 387.8,56.4 387.8,63.1 C387.8,70 384.8,76.1 377.1,76.1 M419.1,84.9 C427.1,84.9 435.4,80.6 435.4,70.9 C435.4,55.7 414.3,59.5 414.3,53.2 C414.3,51.2 416.3,49.6 419.6,49.6 C424.1,49.6 426.4,52.3 427.9,54.9 L435.7,50.6 C432.6,45 427.1,41.6 419.9,41.6 C411.9,41.6 404.5,45.8 404.5,54.6 C404.5,69.2 425.4,64.5 425.4,71.5 C425.4,73.7 423.4,76.5 418.7,76.5 C413.1,76.5 410.9,72.6 409.8,69.6 L401.8,73.2 C403.8,79.6 410.4,84.9 419.2,84.9 L419.1,84.9 M459.2,84.9 C462.1,84.9 465.2,84.2 466.7,83.6 L466.7,74.4 C465.3,75.1 463,75.9 460.9,75.9 C458.3,75.9 456.2,74.7 456.2,70.7 L456.2,51 L466.7,51 L466.7,42.6 L456.2,42.6 L456.2,29 L446.3,29 L446.3,42.5 L439.5,42.5 L439.5,50.9 L446.2,50.9 L446.2,72.5 C446.2,80.1 451,84.9 459.2,84.9 L459.2,84.9 M12.3,42.6 L35,42.6 C36.6569,42.6 38,43.9431 38,45.6 L38,46.8 C38,48.4569 36.6569,49.8 35,49.8 L22,49.8 C21.3,49.8 20.2,50.4 20.2,51.8 C20.2,53.2 21.2,53.8 22,53.8 L40.6,53.8 C42.2569,53.8 43.6,55.1432 43.6,56.8 L43.6,58 C43.6,59.6569 42.2569,61 40.6,61 L22,61 C21.3,61 20.2,61.7 20.2,63 C20.2,64.4 21.2,65.1 22,65.1 L38.4,65.1 C40.0569,65.1 41.4,66.4431 41.4,68.1 L41.4,69.2 C41.4,70.8568 40.0569,72.2 38.4,72.2 L22,72.2 C21.3,72.2 20.2,72.9 20.2,74.2 C20.2,75.7 21.2,76.4 22,76.4 L32.3,76.4 C33.9569,76.4 35.3,77.7431 35.3,79.4 L35.3,80.4 C35.3,82.0569 33.9569,83.4 32.3,83.4 L12.3,83.4 C10.5,83.4 9.5,83.3 8.5,80.9 C3.75835,69.3198 3.83034,56.3269 8.70001,44.8 C9.6,42.6 10.7,42.6 12.3,42.6 L12.3,42.6 M126.5,87.6 L126.5,100.6 C126.5,102 125.3,103.2 123.8,103.2 L28.2,103.2 C26.747,103.201 25.5538,102.052 25.5,100.6 L25.5,87.6 L32,87.6 C36,87.6 39.1,84.4 39.1,80.5 L39.1,79.4 C39.0923,78.3604 38.8532,77.3356 38.4,76.4 C42.2426,76.2379 45.2576,73.0456 45.2,69.2 L45.2,68.2 C45.2077,66.7308 44.7529,65.2964 43.9,64.1 C45.9,62.8 47.4,60.6 47.4,58 L47.4,56.9 C47.4,53.3 44.6,50.2 41.1,49.9 C41.6,48.9 41.8,47.9 41.8,46.7 L41.8,45.7 C41.8,41.7 38.6,38.6 34.8,38.6 L25.5,38.6 L25.5,27.9 C25.5,26.4 26.7,25.2 28.2,25.2 L123.8,25.2 C125.3,25.2 126.5,26.4 126.5,27.9 L126.5,38.6 L117,38.6 C113.1,38.6 110,41.7 110,45.6 L110,46.7 C109.961,47.7655 110.167,48.8258 110.6,49.8 C107.072,50.2508 104.421,53.243 104.4,56.8 L104.4,58 C104.4,60.6 105.8,62.8 107.8,64 C106.983,65.2082 106.563,66.6417 106.6,68.1 L106.6,69.2 C106.6,73 109.6,76.2 113.3,76.3 C112.847,77.2356 112.608,78.2604 112.6,79.3 L112.6,80.5 C112.6,84.4 115.8,87.5 119.7,87.5 L126.4,87.5 L126.5,87.6 M103.5,79.7 C96.4701,87.3885 86.5178,91.7472 76.1,91.7 C65.6679,91.6771 55.7116,87.3326 48.6,79.7 C46.5,77.3 49.2,74 52.1,76.2 C58.8,81.2 67.1,84 76.1,84 C84.6636,84.1162 93.0273,81.4103 99.9,76.3 C102.6,74.3 105.6,77.3 103.4,79.7 L103.5,79.7 M77.8,5.5 L77.8,20.5 C77.8,20.8 78,21 78.3,21 L122,21 C125.2,21 124.6,18.5 123.6,17.7 L111.6,6.7 C110.5,5.5 109.4,5 106.6,5 L78.4,5 C78.1,5 77.9,5.2 77.9,5.5 L77.8,5.5 M73.9,20.5 L73.9,5.5 C73.9,5.2 73.7,5 73.4,5 L45.4,5 C42.6,5 41.4,5.6 40.3,6.7 L28.3,17.7 C27.3,18.6 26.8,21 30,21 L73.4,21 C73.7,21 73.9,20.8 73.9,20.5 L73.9,20.5 M139.1,42.6 L116.8,42.6 C115.143,42.6 113.8,43.9431 113.8,45.6 L113.8,46.8 C113.8,48.4569 115.143,49.8 116.8,49.8 L129.8,49.8 C130.5,49.8 131.5,50.4 131.5,51.8 C131.5,53.2 130.5,53.8 129.8,53.8 L111.2,53.8 C109.543,53.8 108.2,55.1432 108.2,56.8 L108.2,58 C108.2,59.6569 109.543,61 111.2,61 L129.8,61 C130.5,61 131.5,61.7 131.5,63 C131.5,64.4 130.5,65.1 129.8,65.1 L113.4,65.1 C111.743,65.1 110.4,66.4431 110.4,68.1 L110.4,69.2 C110.4,70.8568 111.743,72.2 113.4,72.2 L129.8,72.2 C130.5,72.2 131.5,72.9 131.5,74.2 C131.5,75.7 130.5,76.4 129.8,76.4 L119.5,76.4 C117.843,76.4 116.5,77.7431 116.5,79.4 L116.5,80.4 C116.5,82.0569 117.843,83.4 119.5,83.4 L139.1,83.4 C141.3,83.4 142.2,83.4 143.3,80.6 C147.914,69.251 147.914,56.549 143.3,45.2 C142.2,42.6 141.1,42.6 139.1,42.6 L139.1,42.6"/>
</g>

<g fill="#000000" fill-opacity="1" stroke="#000000" stroke-opacity="1" stroke-width="1" stroke-linecap="butt" stroke-linejoin="miter" stroke-miterlimit="2" transform="matrix(0.330275,0,0,0.330275,8.88991,8)"
>
</g>

<g fill="#000000" fill-opacity="1" stroke="#000000" stroke-opacity="1" stroke-width="1" stroke-linecap="butt" stroke-linejoin="miter" stroke-miterlimit="2" transform="matrix(0.330275,0,0,0.330275,8.88991,8)"
>
</g>

<g fill="#000000" fill-opacity="1" stroke="#000000" stroke-opacity="1" stroke-width="1" stroke-linecap="butt" stroke-linejoin="miter" stroke-miterlimit="2" transform="matrix(1,0,0,1,0,0)"
>
</g>

<g fill="#000000" fill-opacity="1" stroke="#000000" stroke-opacity="1" stroke-width="1" stroke-linecap="butt" stroke-linejoin="miter" stroke-miterlimit="2" transform="matrix(1,0,0,1,0,0)"
>
</g>

<g fill="#000000" fill-opacity="1" stroke="#000000" stroke-opacity="1" stroke-width="1" stroke-linecap="butt" stroke-linejoin="miter" stroke-miterlimit="2" transform="matrix(1,0,0,1,0,0)"
>
</g>

<g fill="#000000" fill-opacity="1" stroke="#000000" stroke-opacity="1" stroke-width="1" stroke-linecap="butt" stroke-linejoin="miter" stroke-miterlimit="2" transform="matrix(1,0,0,1,0,0)"
>
</g>

<g fill="#000000" fill-opacity="1" stroke="#000000" stroke-opacity="1" stroke-width="1" stroke-linecap="butt" stroke-linejoin="miter" stroke-miterlimit="2" transform="matrix(0.330275,0,0,0.330275,8.88991,8)"
>
</g>

<g fill="#000000" fill-opacity="1" stroke="#000000" stroke-opacity="1" stroke-width="1" stroke-linecap="butt" stroke-linejoin="miter" stroke-miterlimit="2" transform="matrix(1,0,0,1,0,0)"
>
</g>

<g fill="#000000" fill-opacity="1" stroke="#000000" stroke-opacity="1" stroke-width="1" stroke-linecap="butt" stroke-linejoin="miter" stroke-miterlimit="2" transform="matrix(1,0,0,1,0,0)"
>
</g>

<g fill="#000000" fill-opacity="1" stroke="#000000" stroke-opacity="1" stroke-width="1" stroke-linecap="butt" stroke-linejoin="miter" stroke-miterlimit="2" transform="matrix(1,0,0,1,0,0)"
>
</g>

<g fill="#000000" fill-opacity="1" stroke="#000000" stroke-opacity="1" stroke-width="1" stroke-linecap="butt" stroke-linejoin="miter" stroke-miterlimit="2" transform="matrix(1,0,0,1,0,0)"
>
</g>

<g fill="#000000" fill-opacity="1" stroke="#000000" stroke-opacity="1" stroke-width="1" stroke-linecap="butt" stroke-linejoin="miter" stroke-miterlimit="2" transform="matrix(1,0,0,1,0,0)"
>
</g>

<g fill="#000000" fill-opacity="1" stroke="#000000" stroke-opacity="1" stroke-width="1" stroke-linecap="butt" stroke-linejoin="miter" stroke-miterlimit="2" transform="matrix(1,0,0,1,0,0)"
>
</g>
</g>
</svg>
